<svg width="375" height="364" viewBox="0 0 375 364" fill="none" xmlns="http://www.w3.org/2000/svg">
<path d="M32 132V0H125L32 132Z" fill="#FDB0BC"/>
<ellipse cx="52" cy="232.5" rx="103" ry="92.5" fill="#FC7F8B"/>
<rect x="-51" y="226.719" width="206" height="98.2812" fill="#FC7F8B"/>
<path d="M32 363V189L187 363H32Z" stroke="white" stroke-width="2"/>
<circle cx="296" cy="108" r="160" fill="#5C85E6"/>
<circle cx="308" cy="336" r="27" fill="#FDB0BC"/>
<line x1="216.257" y1="306.351" x2="374.746" y2="130.331" stroke="white" stroke-width="2"/>
<path d="M256.008 48.984V66H253.032V58.824L253.14 55.992L252.288 57.288L249 61.152L245.712 57.288L244.86 55.992L244.992 58.824V66H242.016V48.984H242.256L249.024 56.964L255.744 48.984H256.008ZM266.015 59.46V66H262.943V59.244L257.663 49.272H261.047L264.563 56.544L267.935 49.272H271.295L266.015 59.46ZM286.946 48.984V66H283.97V58.824L284.078 55.992L283.226 57.288L279.938 61.152L276.65 57.288L275.798 55.992L275.93 58.824V66H272.954V48.984H273.194L279.962 56.964L286.682 48.984H286.946ZM296.881 66.288C295.393 66.288 294.125 65.936 293.077 65.232C292.029 64.52 291.237 63.516 290.701 62.22C290.165 60.916 289.897 59.384 289.897 57.624C289.897 55.88 290.161 54.36 290.689 53.064C291.225 51.76 292.009 50.756 293.041 50.052C294.081 49.34 295.337 48.984 296.809 48.984C298.337 48.984 299.625 49.344 300.673 50.064C301.721 50.776 302.505 51.78 303.025 53.076C303.553 54.372 303.817 55.888 303.817 57.624C303.817 59.384 303.545 60.916 303.001 62.22C302.465 63.516 301.677 64.52 300.637 65.232C299.597 65.936 298.345 66.288 296.881 66.288ZM296.881 63.72C297.593 63.72 298.229 63.492 298.789 63.036C299.357 62.58 299.805 61.888 300.133 60.96C300.461 60.032 300.625 58.896 300.625 57.552C300.625 55.576 300.289 54.072 299.617 53.04C298.953 52 298.017 51.48 296.809 51.48C295.633 51.48 294.721 52 294.073 53.04C293.433 54.072 293.113 55.584 293.113 57.576C293.113 58.936 293.265 60.076 293.569 60.996C293.881 61.908 294.317 62.592 294.877 63.048C295.445 63.496 296.113 63.72 296.881 63.72ZM318.606 49.272V66.336H318.366L310.35 57.192L309.606 56.232L309.726 58.56V66H306.774V48.984H307.038L314.934 58.2L315.774 59.292L315.654 57V49.272H318.606ZM331.785 63.288V66H322.569V49.272H331.305V51.888H325.569V55.8H330.129V58.344H325.569V63.288H331.785ZM340.758 59.46V66H337.686V59.244L332.406 49.272H335.79L339.306 56.544L342.678 49.272H346.038L340.758 59.46ZM346.832 62.424H349.64V66H346.832V62.424Z" fill="white"/>
</svg>
